{"title":"Michigan_VS_Illinois_First_Half_480p_20110311_TTL","uid":6238048,"size":770629520,"categoryP":"video","categoryS":"tv_shows","magnet":"?xt=urn:btih:6157bc6382a4f20d8342264cd604f7d974c282e4&amp;dn=Michigan_VS_Illinois_First_Half_480p_20110311_TTL&amp;tr=udp%3A%2F%2Ftracker.openbittorrent.com%3A80&amp;tr=udp%3A%2F%2Fopen.demonii.com%3A1337&amp;tr=udp%3A%2F%2Ftracker.coppersurfer.tk%3A6969&amp;tr=udp%3A%2F%2Fexodus.desync.com%3A6969","seeders":0,"leechers":0,"uploader":"thetorrentlord","files":2,"time":1299948371,"description":"READ THIS B-4 STARTING TORRENT!!!!!!!!!!!!!!!!!!!\t\t\t\t\t\t\t\t\t\t\t\t\t\t\t\t\t\t\t\t\t\t\t\t\t\t\t\t\t\t\t\t\t\t\t\t\t\t\t\t\t\t\t\t\t\t\t\t\t\t\t\t\t\t\t\t\t\t\t\t\t\t\t\t\t\t\t\t\t\t\t\t************************************************************************************************************************************************************************************************************\t\t\t\t\t\t\t\t\t\t\t\t\t\t\t\t\t\t\t\t\t\t\t\t\t\t\t\t\t\t\t\t\t\t\t\t\t\t\t\t\t\t\t\t\t\t\t\t\t\t\t\t\t                      B-4 starting this torrent, my back-up recorder did not start and because the OSU game went overtime, the last 8.9 seconds of the SECOND HALF are missing. Michigan scored one more free throw for a final score of 60-55. This is from a SD broadcast.  Enjoy and please share.\t\t\t\t\t\t\t\n\n\t\t\t\t\t\t\t\t\t\t\t\t\t\n\n\t\t\t\t\t\t\t\t\t\t\t\t\t\n\n\t\t\t\t\t\t\t\t\t\t\t\t\t\n\n\t\t\t\t\t\t\t\t\t\t\t\t\t\n\n******************************************************************************************************\n\n******************************************************************************************************\t\n\n\t\t\t\t\t\t\t\t\t\t\t\t\t\n\n\t\t\t\t\t\t\t\t\t\t\t\t\t\n\n\t\t\t\t\t\t\t\t\t\t\t\t\t\n\n\t\t\t\t\t\t\t\n\nMichigan_VS_Illinois_First_Half_480p_20110311_TTL.avi\nFormat                           : AVI\nFormat/Info                      : Audio Video Interleave\nFile size                        : 735 MiB\nDuration                         : 1h 8mn\nOverall bit rate                 : 1 495 Kbps\nMovie name                       : Michigan_VS_Illinois_First_Half_480p_20110311_TTL.mpg\nDirector                         : created.with.SUPER(C).v2010.bld.37\nWriting application              : SUPER(C)   \n\nVideo\nID                               : 0\nFormat                           : MPEG-4 Visual\nFormat profile                   : Simple@L3\nFormat settings, BVOP            : No\nFormat settings, QPel            : No\nFormat settings, GMC             : No warppoints\nFormat settings, Matrix          : Default (H.263)\nCodec ID                         : XVID\nCodec ID/Hint                    : XviD\nDuration                         : 34mn 22s\nBit rate                         : 2 881 Kbps\nWidth                            : 624 pixels\nHeight                           : 352 pixels\nDisplay aspect ratio             : 16:9\nFrame rate                       : 23.976 fps\nResolution                       : 8 bits\nColorimetry                      : 4:2:0\nScan type                        : Progressive\nBits/(Pixel*Frame)               : 0.547\nStream size                      : 708 MiB (96%)\nWriting library                  : XviD 1.1.2 (UTC 2006-11-01)\n\nAudio\nID                               : 1\nFormat                           : MPEG Audio\nFormat version                   : Version 2\nFormat profile                   : Layer 3\nMode                             : Joint stereo\nFormat_Settings_ModeExtension    : MS Stereo\nCodec ID                         : 55\nCodec ID/Hint                    : MP3\nDuration                         : 1h 8mn\nBit rate mode                    : Constant\nBit rate                         : 96.0 Kbps\nChannel(s)                       : 2 channels\nSampling rate                    : 22.05 KHz\nStream size                      : 23.6 MiB (3%)\nAlignment                        : Aligned on interleaves\nInterleave, duration             : 26 ms (0.63 video frame)\nInterleave, preload duration     : 26 ms\n\n\n\n\n","torrent":{"xt":"urn:btih:6157bc6382a4f20d8342264cd604f7d974c282e4","amp;dn":"Michigan_VS_Illinois_First_Half_480p_20110311_TTL","amp;tr":["udp%3A%2F%2Ftracker.openbittorrent.com%3A80","udp%3A%2F%2Fopen.demonii.com%3A1337","udp%3A%2F%2Ftracker.coppersurfer.tk%3A6969","udp%3A%2F%2Fexodus.desync.com%3A6969"],"infoHash":"6157bc6382a4f20d8342264cd604f7d974c282e4","infoHashBuffer":{"type":"Buffer","data":[97,87,188,99,130,164,242,13,131,66,38,76,214,4,247,217,116,194,130,228]},"announce":[],"urlList":[]}}